# xmcd
#
# Track frame offsets:
#	150
#	14555
#	23344
#	32750
#	43106
#	52939
#	62153
#	78928
#	91272
#	106058
#	119728
#	134989
#
# Disc length: 1968 seconds
#
# Revision: 0
# Processed by: cddbd v1.5.2PL0 Copyright (c) Steve Scherf et al.
# Submitted via: EasyCDDAExtractor 10.0.6.1
#
DISCID=9b07ae0c
DTITLE=Frank Sinatra and Tony Bennett - Frank and Tony
DYEAR=2002
DGENRE=Vocal
TTITLE0=As time goes by
TTITLE1=Ive got you under my skin
TTITLE2=Chicago
TTITLE3=Dancing in the dark
TTITLE4=Blue moon
TTITLE5=All the way
TTITLE6=My romance
TTITLE7=Come fly with me
TTITLE8=Manhattan
TTITLE9=The lady is a tramp
TTITLE10=Have you met Miss Jones
TTITLE11=I get a kick out of you
EXTD=
EXTT0=
EXTT1=
EXTT2=
EXTT3=
EXTT4=
EXTT5=
EXTT6=
EXTT7=
EXTT8=
EXTT9=
EXTT10=
EXTT11=
PLAYORDER=
